<svg xmlns="http://www.w3.org/2000/svg" xmlns:xlink="http://www.w3.org/1999/xlink" width="1280" zoomAndPan="magnify" viewBox="0 0 960 959.999988" height="1280" preserveAspectRatio="xMidYMid meet" version="1.0"><defs><g/></defs><g fill="#000000" fill-opacity="1"><g transform="translate(238.462464, 512.62672)"><g><path d="M 77.375 -64.40625 L 77.375 0 L 70.84375 0 L 70.84375 -51.515625 L 45.546875 -8.1875 L 42.3125 -8.1875 L 17.015625 -51.25 L 17.015625 0 L 10.484375 0 L 10.484375 -64.40625 L 16.09375 -64.40625 L 44.0625 -16.65625 L 71.765625 -64.40625 Z M 77.375 -64.40625 "/></g></g></g><g fill="#000000" fill-opacity="1"><g transform="translate(326.315067, 512.62672)"><g><path d="M 26.03125 -48.765625 C 32.351562 -48.765625 37.195312 -47.179688 40.5625 -44.015625 C 43.9375 -40.859375 45.625 -36.179688 45.625 -29.984375 L 45.625 0 L 39.375 0 L 39.375 -7.546875 C 37.90625 -5.023438 35.742188 -3.0625 32.890625 -1.65625 C 30.035156 -0.25 26.644531 0.453125 22.71875 0.453125 C 17.320312 0.453125 13.03125 -0.832031 9.84375 -3.40625 C 6.65625 -5.976562 5.0625 -9.378906 5.0625 -13.609375 C 5.0625 -17.722656 6.546875 -21.035156 9.515625 -23.546875 C 12.492188 -26.066406 17.234375 -27.328125 23.734375 -27.328125 L 39.09375 -27.328125 L 39.09375 -30.265625 C 39.09375 -34.441406 37.925781 -37.617188 35.59375 -39.796875 C 33.269531 -41.972656 29.867188 -43.0625 25.390625 -43.0625 C 22.328125 -43.0625 19.382812 -42.550781 16.5625 -41.53125 C 13.738281 -40.519531 11.316406 -39.128906 9.296875 -37.359375 L 6.34375 -42.234375 C 8.800781 -44.316406 11.742188 -45.925781 15.171875 -47.0625 C 18.609375 -48.195312 22.226562 -48.765625 26.03125 -48.765625 Z M 23.734375 -4.6875 C 27.410156 -4.6875 30.566406 -5.53125 33.203125 -7.21875 C 35.847656 -8.90625 37.8125 -11.34375 39.09375 -14.53125 L 39.09375 -22.453125 L 23.921875 -22.453125 C 15.640625 -22.453125 11.5 -19.566406 11.5 -13.796875 C 11.5 -10.972656 12.570312 -8.75 14.71875 -7.125 C 16.863281 -5.5 19.867188 -4.6875 23.734375 -4.6875 Z M 23.734375 -4.6875 "/></g></g></g><g fill="#000000" fill-opacity="1"><g transform="translate(380.5905, 512.62672)"><g><path d="M 33.765625 -48.765625 C 39.835938 -48.765625 44.664062 -47 48.25 -43.46875 C 51.84375 -39.945312 53.640625 -34.8125 53.640625 -28.0625 L 53.640625 0 L 47.109375 0 L 47.109375 -27.421875 C 47.109375 -32.441406 45.847656 -36.269531 43.328125 -38.90625 C 40.816406 -41.550781 37.226562 -42.875 32.5625 -42.875 C 27.351562 -42.875 23.226562 -41.320312 20.1875 -38.21875 C 17.15625 -35.125 15.640625 -30.847656 15.640625 -25.390625 L 15.640625 0 L 9.109375 0 L 9.109375 -48.390625 L 15.359375 -48.390625 L 15.359375 -39.46875 C 17.140625 -42.414062 19.609375 -44.703125 22.765625 -46.328125 C 25.929688 -47.953125 29.597656 -48.765625 33.765625 -48.765625 Z M 33.765625 -48.765625 "/></g></g></g><g fill="#000000" fill-opacity="1"><g transform="translate(442.869268, 512.62672)"><g><path d="M 51.25 -22.171875 L 10.765625 -22.171875 C 11.128906 -17.140625 13.054688 -13.078125 16.546875 -9.984375 C 20.046875 -6.890625 24.46875 -5.34375 29.8125 -5.34375 C 32.8125 -5.34375 35.566406 -5.878906 38.078125 -6.953125 C 40.597656 -8.023438 42.78125 -9.601562 44.625 -11.6875 L 48.296875 -7.453125 C 46.148438 -4.878906 43.46875 -2.914062 40.25 -1.5625 C 37.03125 -0.21875 33.488281 0.453125 29.625 0.453125 C 24.65625 0.453125 20.253906 -0.601562 16.421875 -2.71875 C 12.585938 -4.832031 9.597656 -7.757812 7.453125 -11.5 C 5.304688 -15.238281 4.234375 -19.472656 4.234375 -24.203125 C 4.234375 -28.921875 5.257812 -33.148438 7.3125 -36.890625 C 9.363281 -40.628906 12.179688 -43.539062 15.765625 -45.625 C 19.359375 -47.71875 23.394531 -48.765625 27.875 -48.765625 C 32.351562 -48.765625 36.367188 -47.71875 39.921875 -45.625 C 43.484375 -43.539062 46.273438 -40.644531 48.296875 -36.9375 C 50.328125 -33.226562 51.34375 -28.984375 51.34375 -24.203125 Z M 27.875 -43.140625 C 23.21875 -43.140625 19.304688 -41.648438 16.140625 -38.671875 C 12.984375 -35.703125 11.191406 -31.828125 10.765625 -27.046875 L 45.078125 -27.046875 C 44.648438 -31.828125 42.851562 -35.703125 39.6875 -38.671875 C 36.53125 -41.648438 32.59375 -43.140625 27.875 -43.140625 Z M 27.875 -43.140625 "/></g></g></g><g fill="#000000" fill-opacity="1"><g transform="translate(498.432574, 512.62672)"><g><path d="M 77.375 -64.40625 L 77.375 0 L 70.84375 0 L 70.84375 -51.515625 L 45.546875 -8.1875 L 42.3125 -8.1875 L 17.015625 -51.25 L 17.015625 0 L 10.484375 0 L 10.484375 -64.40625 L 16.09375 -64.40625 L 44.0625 -16.65625 L 71.765625 -64.40625 Z M 77.375 -64.40625 "/></g></g></g><g fill="#000000" fill-opacity="1"><g transform="translate(586.285177, 512.62672)"><g><path d="M 26.03125 -48.765625 C 32.351562 -48.765625 37.195312 -47.179688 40.5625 -44.015625 C 43.9375 -40.859375 45.625 -36.179688 45.625 -29.984375 L 45.625 0 L 39.375 0 L 39.375 -7.546875 C 37.90625 -5.023438 35.742188 -3.0625 32.890625 -1.65625 C 30.035156 -0.25 26.644531 0.453125 22.71875 0.453125 C 17.320312 0.453125 13.03125 -0.832031 9.84375 -3.40625 C 6.65625 -5.976562 5.0625 -9.378906 5.0625 -13.609375 C 5.0625 -17.722656 6.546875 -21.035156 9.515625 -23.546875 C 12.492188 -26.066406 17.234375 -27.328125 23.734375 -27.328125 L 39.09375 -27.328125 L 39.09375 -30.265625 C 39.09375 -34.441406 37.925781 -37.617188 35.59375 -39.796875 C 33.269531 -41.972656 29.867188 -43.0625 25.390625 -43.0625 C 22.328125 -43.0625 19.382812 -42.550781 16.5625 -41.53125 C 13.738281 -40.519531 11.316406 -39.128906 9.296875 -37.359375 L 6.34375 -42.234375 C 8.800781 -44.316406 11.742188 -45.925781 15.171875 -47.0625 C 18.609375 -48.195312 22.226562 -48.765625 26.03125 -48.765625 Z M 23.734375 -4.6875 C 27.410156 -4.6875 30.566406 -5.53125 33.203125 -7.21875 C 35.847656 -8.90625 37.8125 -11.34375 39.09375 -14.53125 L 39.09375 -22.453125 L 23.921875 -22.453125 C 15.640625 -22.453125 11.5 -19.566406 11.5 -13.796875 C 11.5 -10.972656 12.570312 -8.75 14.71875 -7.125 C 16.863281 -5.5 19.867188 -4.6875 23.734375 -4.6875 Z M 23.734375 -4.6875 "/></g></g></g><g fill="#000000" fill-opacity="1"><g transform="translate(640.560587, 512.62672)"><g><path d="M 34.046875 -48.765625 C 38.578125 -48.765625 42.679688 -47.734375 46.359375 -45.671875 C 50.046875 -43.617188 52.929688 -40.722656 55.015625 -36.984375 C 57.097656 -33.242188 58.140625 -28.984375 58.140625 -24.203125 C 58.140625 -19.347656 57.097656 -15.050781 55.015625 -11.3125 C 52.929688 -7.570312 50.0625 -4.675781 46.40625 -2.625 C 42.757812 -0.570312 38.640625 0.453125 34.046875 0.453125 C 30.117188 0.453125 26.570312 -0.359375 23.40625 -1.984375 C 20.25 -3.609375 17.660156 -5.984375 15.640625 -9.109375 L 15.640625 17.84375 L 9.109375 17.84375 L 9.109375 -48.390625 L 15.359375 -48.390625 L 15.359375 -38.828125 C 17.328125 -42.015625 19.921875 -44.46875 23.140625 -46.1875 C 26.359375 -47.90625 29.992188 -48.765625 34.046875 -48.765625 Z M 33.578125 -5.34375 C 36.953125 -5.34375 40.019531 -6.125 42.78125 -7.6875 C 45.539062 -9.25 47.703125 -11.46875 49.265625 -14.34375 C 50.828125 -17.226562 51.609375 -20.515625 51.609375 -24.203125 C 51.609375 -27.878906 50.828125 -31.140625 49.265625 -33.984375 C 47.703125 -36.835938 45.539062 -39.0625 42.78125 -40.65625 C 40.019531 -42.257812 36.953125 -43.0625 33.578125 -43.0625 C 30.140625 -43.0625 27.054688 -42.257812 24.328125 -40.65625 C 21.597656 -39.0625 19.453125 -36.835938 17.890625 -33.984375 C 16.328125 -31.140625 15.546875 -27.878906 15.546875 -24.203125 C 15.546875 -20.515625 16.328125 -17.226562 17.890625 -14.34375 C 19.453125 -11.46875 21.597656 -9.25 24.328125 -7.6875 C 27.054688 -6.125 30.140625 -5.34375 33.578125 -5.34375 Z M 33.578125 -5.34375 "/></g></g></g></svg>
